<svg width="68" height="68" viewBox="0 0 68 68" fill="none" xmlns="http://www.w3.org/2000/svg">
<g clip-path="url(#clip0_24130_9698)">
<path d="M33.2529 39.2656C35.9114 39.2656 38.0664 37.1106 38.0664 34.4522C38.0664 31.7937 35.9114 29.6387 33.2529 29.6387C30.5945 29.6387 28.4395 31.7937 28.4395 34.4522C28.4395 37.1106 30.5945 39.2656 33.2529 39.2656Z" fill="white"/>
<path d="M42.3802 35.048C42.3802 40.9004 41.2577 46.1451 39.4913 49.8857C37.6849 53.7111 35.4054 55.5975 33.2548 55.5975C31.1041 55.5975 28.8246 53.7111 27.0182 49.8857C25.2518 46.1451 24.1293 40.9004 24.1293 35.048C24.1293 29.1956 25.2518 23.9509 27.0182 20.2103C28.8246 16.3849 31.1041 14.4985 33.2548 14.4985C35.4054 14.4985 37.6849 16.3849 39.4913 20.2103C41.2577 23.9509 42.3802 29.1956 42.3802 35.048Z" stroke="white" stroke-width="2.19222"/>
<path d="M37.8157 27.1313C42.884 30.0575 46.8648 33.6519 49.2211 37.052C51.6307 40.5291 52.1247 43.4464 51.0494 45.3089C49.974 47.1715 47.2006 48.2024 42.9845 47.8541C38.8618 47.5135 33.7585 45.8632 28.6902 42.937C23.6219 40.0108 19.6411 36.4164 17.2848 33.0163C14.8752 29.5393 14.3812 26.6219 15.4565 24.7594C16.5318 22.8969 19.3053 21.866 23.5214 22.2143C27.6441 22.5548 32.7473 24.2051 37.8157 27.1313Z" stroke="white" stroke-width="2.19222"/>
<path d="M28.6894 27.1624C33.7577 24.2362 38.861 22.5859 42.9837 22.2454C47.1997 21.8971 49.9732 22.928 51.0485 24.7905C52.1238 26.653 51.6299 29.5704 49.2202 33.0474C46.864 36.4475 42.8831 40.042 37.8148 42.9682C32.7465 45.8943 27.6432 47.5446 23.5205 47.8852C19.3045 48.2335 16.531 47.2026 15.4557 45.3401C14.3803 43.4775 14.8743 40.5602 17.2839 37.0831C19.6402 33.683 23.6211 30.0886 28.6894 27.1624Z" stroke="white" stroke-width="2.19222"/>
<path d="M40.4673 24.2162C42.7918 24.2162 44.6762 22.3318 44.6762 20.0073C44.6762 17.6828 42.7918 15.7984 40.4673 15.7984C38.1428 15.7984 36.2584 17.6828 36.2584 20.0073C36.2584 22.3318 38.1428 24.2162 40.4673 24.2162Z" fill="white" stroke="#242429" stroke-width="2.40507"/>
<path d="M14.0122 45.8696C16.3367 45.8696 18.2211 43.9853 18.2211 41.6608C18.2211 39.3363 16.3367 37.4519 14.0122 37.4519C11.6877 37.4519 9.80332 39.3363 9.80332 41.6608C9.80332 43.9853 11.6877 45.8696 14.0122 45.8696Z" fill="white" stroke="#242429" stroke-width="2.40507"/>
<path d="M48.8852 53.0912C51.2097 53.0912 53.0941 51.2068 53.0941 48.8823C53.0941 46.5578 51.2097 44.6734 48.8852 44.6734C46.5607 44.6734 44.6764 46.5578 44.6764 48.8823C44.6764 51.2068 46.5607 53.0912 48.8852 53.0912Z" fill="white" stroke="#242429" stroke-width="2.40507"/>
</g>
<defs>
<clipPath id="clip0_24130_9698">
<rect width="47.7091" height="47.7091" fill="white" transform="translate(9.39844 10.665)"/>
</clipPath>
</defs>
</svg>
