<svg width="32" height="32" viewBox="0 0 32 32" fill="none" xmlns="http://www.w3.org/2000/svg">
<path d="M15.2351 16.5443C15.2351 16.9933 14.8562 17.8188 13.9723 18.5685C13.1252 19.287 12.0754 19.7042 11.1168 19.6171C9.06435 19.4308 7.72564 18.0937 7.72564 16.5443C7.72564 14.995 9.06435 13.6579 11.1168 13.4716C12.0754 13.3845 13.1252 13.8017 13.9723 14.5202C14.8562 15.2699 15.2351 16.0953 15.2351 16.5443Z" stroke="white" stroke-width="2.48253"/>
<path d="M24.2742 16.5443C24.2742 18.0937 22.9355 19.4308 20.883 19.6171C19.9244 19.7042 18.8746 19.287 18.0276 18.5685C17.1437 17.8188 16.7647 16.9933 16.7647 16.5443C16.7647 16.0953 17.1437 15.2699 18.0276 14.5202C18.8746 13.8017 19.9244 13.3845 20.883 13.4716C22.9355 13.6579 24.2742 14.995 24.2742 16.5443Z" stroke="white" stroke-width="2.48253"/>
</svg>
