<svg width="32" height="32" viewBox="0 0 32 32" fill="none" xmlns="http://www.w3.org/2000/svg">
<path d="M13.621 20.4207H15.5412L12.5383 11.7891H10.4148L7.41797 20.4207H9.27231L9.9303 18.3271H12.963L13.621 20.4207ZM11.4257 13.44H11.4676L12.5742 16.9752H10.3191L11.4257 13.44Z" fill="white"/>
<path d="M16.549 11.7891V20.4207H19.8449C22.435 20.4207 23.9603 18.8116 23.9603 16.072C23.9603 13.3323 22.435 11.7891 19.8449 11.7891H16.549ZM18.3554 13.2785H19.6296C21.2207 13.2785 22.118 14.2715 22.118 16.078C22.118 17.9443 21.2446 18.9253 19.6296 18.9253H18.3554V13.2785Z" fill="white"/>
<path d="M7.24805 15.2344H24.7525" stroke="white" stroke-width="1.29662" stroke-linecap="round"/>
</svg>
