<svg width="32" height="32" viewBox="0 0 32 32" fill="none" xmlns="http://www.w3.org/2000/svg">
<path d="M23.7956 14.2862C24.0067 13.6507 24.0797 12.9774 24.0097 12.3114C23.9398 11.6454 23.7285 11.002 23.3901 10.4242C22.8883 9.55075 22.1221 8.85925 21.202 8.44936C20.2819 8.03947 19.2554 7.93236 18.2705 8.14347C17.7109 7.52105 16.9974 7.05682 16.2017 6.7974C15.4059 6.53799 14.556 6.49252 13.7371 6.66557C12.9182 6.83861 12.1593 7.22409 11.5365 7.78326C10.9138 8.34244 10.4491 9.05564 10.1892 9.85123C9.53305 9.98578 8.91317 10.2588 8.37099 10.6521C7.82881 11.0454 7.37683 11.5499 7.04524 12.1319C6.53801 13.0039 6.32123 14.0145 6.42622 15.0178C6.53122 16.0211 6.95256 16.965 7.62933 17.713C7.41752 18.3482 7.34379 19.0214 7.4131 19.6874C7.4824 20.3534 7.69314 20.997 8.03121 21.575C8.53362 22.4487 9.30046 23.1404 10.2212 23.5503C11.142 23.9601 12.1691 24.0671 13.1546 23.8557C13.5991 24.3564 14.1454 24.7564 14.7568 25.0291C15.3682 25.3018 16.0308 25.4409 16.7003 25.4371C17.7098 25.4381 18.6935 25.1182 19.5094 24.5237C20.3253 23.9291 20.9311 23.0908 21.2395 22.1295C21.8956 21.9947 22.5154 21.7216 23.0575 21.3283C23.5997 20.935 24.0517 20.4306 24.3835 19.8487C24.8847 18.9781 25.0978 17.9712 24.9922 16.9721C24.8866 15.9731 24.4678 15.0329 23.7956 14.2862ZM16.7003 24.2018C15.8736 24.2031 15.0727 23.9133 14.4382 23.3833L14.5498 23.32L18.3077 21.1509C18.4012 21.096 18.4788 21.0178 18.533 20.9238C18.5871 20.8299 18.6159 20.7235 18.6165 20.615V15.3169L20.2051 16.2359C20.213 16.2399 20.2198 16.2457 20.225 16.2528C20.2302 16.2599 20.2336 16.2681 20.235 16.2768V20.6672C20.233 21.604 19.86 22.5019 19.1975 23.1643C18.5351 23.8268 17.6372 24.1998 16.7003 24.2018ZM9.10274 20.9574C8.6881 20.2414 8.53923 19.4022 8.6823 18.5873L8.79398 18.6543L12.5555 20.8235C12.6486 20.8781 12.7546 20.9069 12.8625 20.9069C12.9704 20.9069 13.0764 20.8781 13.1694 20.8235L17.7645 18.1743V20.0086C17.764 20.0181 17.7615 20.0274 17.7569 20.0358C17.7524 20.0442 17.7461 20.0514 17.7384 20.057L13.9321 22.2522C13.1198 22.7201 12.155 22.8466 11.2496 22.6038C10.3441 22.3611 9.57199 21.7689 9.10274 20.9574ZM8.11307 12.7719C8.53058 12.0514 9.18958 11.5018 9.97341 11.2204V15.6852C9.97199 15.7931 9.99955 15.8994 10.0532 15.9929C10.1069 16.0865 10.1847 16.164 10.2785 16.2173L14.8512 18.8552L13.2625 19.7742C13.2539 19.7787 13.2443 19.7811 13.2346 19.7811C13.2248 19.7811 13.2152 19.7787 13.2066 19.7742L9.40788 17.5828C8.5971 17.1128 8.00561 16.3407 7.76292 15.4355C7.52024 14.5303 7.64615 13.5659 8.11307 12.7534V12.7719ZM21.1651 15.8043L16.5776 13.1403L18.1626 12.2249C18.1712 12.2203 18.1808 12.2179 18.1905 12.2179C18.2002 12.2179 18.2098 12.2203 18.2184 12.2249L22.0172 14.4201C22.598 14.7552 23.0715 15.2487 23.3824 15.8428C23.6933 16.437 23.8288 17.1073 23.773 17.7756C23.7172 18.4439 23.4725 19.0825 23.0674 19.6168C22.6623 20.1512 22.1135 20.5594 21.4851 20.7936V16.3288C21.4818 16.2211 21.4506 16.1161 21.3945 16.0242C21.3384 15.9322 21.2594 15.8565 21.1651 15.8043ZM22.7464 13.4268L22.6348 13.3598L18.8807 11.1721C18.787 11.1171 18.6804 11.0881 18.5718 11.0881C18.4633 11.0881 18.3566 11.1171 18.263 11.1721L13.6718 13.8211V11.9869C13.6708 11.9776 13.6724 11.9682 13.6763 11.9596C13.6803 11.9511 13.6864 11.9438 13.6942 11.9385L17.4929 9.74703C18.0751 9.41162 18.7408 9.24892 19.4121 9.27796C20.0834 9.30699 20.7325 9.52656 21.2836 9.91099C21.8347 10.2954 22.2649 10.8288 22.524 11.4488C22.783 12.0687 22.8602 12.7496 22.7465 13.4119L22.7464 13.4268ZM12.8048 16.6785L11.2161 15.7632C11.2082 15.7585 11.2014 15.752 11.1962 15.7443C11.1911 15.7366 11.1877 15.7278 11.1863 15.7187V11.3395C11.1871 10.6677 11.3792 10.01 11.7401 9.44338C12.101 8.87673 12.6157 8.42453 13.2241 8.13965C13.8325 7.85476 14.5095 7.74896 15.1758 7.83462C15.8421 7.92027 16.4703 8.19385 16.9868 8.62336L16.8752 8.68667L13.1174 10.8557C13.0238 10.9105 12.9462 10.9888 12.892 11.0827C12.8379 11.1766 12.8091 11.2831 12.8085 11.3915L12.8048 16.6785ZM13.668 14.8183L15.7143 13.6387L17.7645 14.8183V17.1771L15.7218 18.3565L13.6717 17.1771L13.668 14.8183Z" fill="white"/>
</svg>
